<?xml version="1.0" encoding="utf-8"?>
<!-- Generator: Adobe Illustrator 22.1.0, SVG Export Plug-In . SVG Version: 6.00 Build 0)  -->
<svg version="1.1" id="Слой_1" xmlns="http://www.w3.org/2000/svg" xmlns:xlink="http://www.w3.org/1999/xlink" x="0px" y="0px"
	 viewBox="0 0 213 213" style="enable-background:new 0 0 213 213;" xml:space="preserve">
<style type="text/css">
	.st0{filter:url(#Adobe_OpacityMaskFilter);}
	.st1{fill:#FFFFFF;}
	.st2{mask:url(#b_1_);fill:#FFFFFF;}
</style>
<defs>
	<filter id="Adobe_OpacityMaskFilter" filterUnits="userSpaceOnUse" x="26.8" y="12.9" width="157.5" height="187.1">
		<feColorMatrix  type="matrix" values="1 0 0 0 0  0 1 0 0 0  0 0 1 0 0  0 0 0 1 0"/>
	</filter>
</defs>
<mask maskUnits="userSpaceOnUse" x="26.8" y="12.9" width="157.5" height="187.1" id="b_1_">
	<g class="st0">
		<circle id="a_1_" class="st1" cx="109.7" cy="82.1" r="106.5"/>
	</g>
</mask>
<path class="st2" d="M49.8,152.6c0.6-0.4,1.3-0.7,2.1-1c0.7-0.2,1.5-0.4,2.2-0.6c20.6-6.3,25.5-11.8,27.4-17.8
	c3.4-1.5,4.7-2.6,5.4-6.2c0.4-2.3,0.8-10,0.4-12.7c-2-1.9-3-6.8-4-8.8c-2.2-4.5-2.6-6.9-4.7-14.5c-0.3-1-1-1.1-1.5-1.3
	c-0.7-0.3-1.4-0.8-2-1.7c-1.9-2.6-0.7-4.1-2.5-9c-2.3-5.6-3.2-11.1-1.5-12.8c1.2-1,2-0.4,2.5-0.2c0.4,0.1,0.1-0.8-0.3-2.2
	c-1.4-5.6-1.5-16.9-1.5-16.9l0.2,0c-0.7-4.7-0.5-9,2.6-15.6c3.1-6.7,5.8-5.2,7.4-7c6.5-7.3,12.5-7.5,17-9.5
	c10.1-4.4,18.6-0.5,25.4,2.4c2.9,1.2,11.2,2.2,14,8.3c1.6,3.6,3.1,9.7,3.6,10.3c0.6,2.6,0.9,6.9,0.6,11.6
	c-0.4,5.8-0.4,10.6-1.7,16.2c-0.3,1.4-0.6,2.3-0.3,2.2c0.6-0.2,1.3-1,2.5,0.1c1.7,1.7,1.4,7.4-0.9,13c-1.8,4.9-0.8,5.8-1.9,7.8
	c-0.5,0.9-0.8,2.1-2.3,2.6c-0.5,0.2-1.1,0.6-1.3,1.7c-1.6,7.4-2,8.8-3.7,14.3c-0.6,2.1-2,6.6-3.9,8.3c-0.4,3.2,0.5,11.4,1.1,13.2
	c1.2,4.3,2.4,5.2,4.9,6.2c3,6.2,5.3,14.4,28.1,18c1,0.2,2.1,0.3,3.2,0.5c1.1,0.2,2.2,0.5,3.3,0.9c22.6,7.5,12.1,46,12.1,46
	l-124.7,1.6l-30.3-27.9C26.8,172.2,26.8,159.2,49.8,152.6L49.8,152.6z"/>
</svg>
