<?xml version="1.0" encoding="UTF-8"?>
<svg width="49px" height="78px" viewBox="0 0 49 78" version="1.1" xmlns="http://www.w3.org/2000/svg" xmlns:xlink="http://www.w3.org/1999/xlink">
    <!-- Generator: sketchtool 52 (66869) - http://www.bohemiancoding.com/sketch -->
    <title>21C659A3-24EF-4845-97A4-0CF801354C86</title>
    <desc>Created with sketchtool.</desc>
    <g id="Concept-v.3" stroke="none" stroke-width="1" fill="none" fill-rule="evenodd">
        <g id="FSSMO_contacts" transform="translate(-576.000000, -541.000000)">
            <g id="Group" transform="translate(576.000000, 541.000000)">
                <path d="M24.5,77.5 C40.8333333,51.1873176 49,33.5206509 49,24.5 C49,10.9690236 38.0309764,1.0658141e-13 24.5,1.0658141e-13 C10.9690236,1.0658141e-13 0,10.9690236 0,24.5 C0,33.5206509 8.16666667,51.1873176 24.5,77.5 Z" id="Oval" fill="#F47832"></path>
                <g id="Logo_2-Copy" transform="translate(6.000000, 6.000000)" fill="#FFFFFF" fill-rule="nonzero">
                    <path d="M34.196599,19.2289157 C34.2011181,23.2168699 32.6015037,27.042773 29.7506084,29.8626843 C26.899713,32.6825955 23.0317723,34.264825 19,34.2603551 L19,38 C24.036107,38.0029681 28.8671427,36.0269777 32.4303341,32.5067176 C35.9935255,28.9864575 37.9969943,24.2102892 38,19.2289157 L34.196599,19.2289157 Z" id="Shape"></path>
                    <path d="M19,3.7575822 L19,0 C13.9599664,-0.00296691835 9.12549476,1.97373959 5.56165217,5.49464432 C1.99780959,9.01554904 -0.00300310028,13.791774 0,18.7710843 L3.80340637,18.7710843 C3.80039568,14.7883449 5.40049394,10.9678734 8.25106097,8.1516506 C11.101628,5.33542775 14.9686906,3.75460779 19,3.7575822 Z" id="Shape"></path>
                    <path d="M7.52906817,19.2289157 L3.70731707,19.2289157 C3.70429587,23.2368361 5.31451079,27.0814625 8.18310058,29.915491 C11.0516904,32.7495195 14.9432025,34.3403342 19,34.3373494 L19,30.5560081 C15.9573166,30.5605007 13.0378625,29.368737 10.885823,27.243683 C8.73378352,25.1186289 7.52603421,22.2349421 7.52906817,19.2289157 Z" id="Shape"></path>
                    <path d="M19,3.6626506 L19,7.44401079 C22.0430574,7.43802233 24.9634718,8.62894302 27.1168466,10.7539933 C29.2702214,12.8790435 30.4795715,15.7635662 30.4780507,18.7710843 L34.2926829,18.7710843 C34.2972128,14.7617341 32.6873045,10.9153859 29.8182226,8.08087405 C26.9491407,5.24636218 23.0567336,3.65669316 19,3.6626506 Z" id="Shape"></path>
                    <path d="M19,26.4129651 L19,30.2168675 C22.071508,30.2228734 25.0192264,29.0194764 27.1927338,26.8721638 C29.3662412,24.7248512 30.5868979,21.8101097 30.5853659,18.7710843 L26.71782,18.7710843 C26.7193472,20.7973133 25.9068963,22.7410704 24.4593587,24.174365 C23.0118211,25.6076595 21.0478907,26.4129656 19,26.4129651 Z" id="Shape"></path>
                    <path d="M7.41463415,19.2289157 L11.2802711,19.2289157 C11.2787426,17.2036695 12.0912103,15.260772 13.5389404,13.8276387 C14.9866706,12.3945055 16.9510725,11.5885315 19,11.5870218 L19,7.78313253 C15.9269658,7.7786184 12.9783902,8.98286723 10.8048841,11.1301838 C8.63137802,13.2775004 7.41158142,16.1913974 7.41463415,19.2289157 Z" id="Shape"></path>
                    <path d="M22.9419596,18.7710843 L26.8780488,18.7710843 C26.8796032,16.7074027 26.0502856,14.7277174 24.5726967,13.26793 C23.0951078,11.8081425 21.0904055,10.9879512 19,10.9879518 L19,14.8795181 C21.1757426,14.882712 22.9387243,16.623156 22.9419596,18.7710843 Z" id="Shape"></path>
                    <path d="M19,26.5542169 L19,22.6626506 C16.8226337,22.6594567 15.0583364,20.9190127 15.0550987,18.7710843 L11.1219512,18.7710843 C11.1203958,20.8337614 11.9495255,22.8125679 13.4269455,24.2721885 C14.9043656,25.7318091 16.9090533,26.5526793 19,26.5542169 Z" id="Shape"></path>
                </g>
            </g>
        </g>
    </g>
</svg>