<svg xmlns="http://www.w3.org/2000/svg" width="49" height="78" viewBox="0 0 49 78">
    <g fill="none" fill-rule="evenodd">
        <path fill="#F47832" d="M24.5 77.5C40.833 51.187 49 33.52 49 24.5 49 10.969 38.031 0 24.5 0S0 10.969 0 24.5c0 9.02 8.167 26.687 24.5 53z"/>
        <g fill="#FFF" fill-rule="nonzero">
            <path d="M40.197 25.229a14.932 14.932 0 0 1-4.446 10.634A15.265 15.265 0 0 1 25 40.26V44a19.095 19.095 0 0 0 13.43-5.493A18.68 18.68 0 0 0 44 25.229h-3.803zM25 9.758V6a19.107 19.107 0 0 0-13.438 5.495A18.646 18.646 0 0 0 6 24.77h3.803a14.911 14.911 0 0 1 4.448-10.62A15.28 15.28 0 0 1 25 9.759zM13.53 25.229H9.706a15.005 15.005 0 0 0 4.476 10.686A15.376 15.376 0 0 0 25 40.337v-3.781a11.525 11.525 0 0 1-8.114-3.312 11.247 11.247 0 0 1-3.357-8.015zM25 9.663v3.781a11.525 11.525 0 0 1 8.117 3.31 11.255 11.255 0 0 1 3.361 8.017h3.815a15.003 15.003 0 0 0-4.475-10.69A15.362 15.362 0 0 0 25 9.663z"/>
            <path d="M25 32.413v3.804a11.626 11.626 0 0 0 8.193-3.345 11.38 11.38 0 0 0 3.392-8.1h-3.867a7.595 7.595 0 0 1-2.259 5.402A7.76 7.76 0 0 1 25 32.413zM13.415 25.229h3.865a7.592 7.592 0 0 1 2.259-5.401A7.771 7.771 0 0 1 25 17.587v-3.804a11.637 11.637 0 0 0-8.195 3.347 11.368 11.368 0 0 0-3.39 8.099zM28.942 24.771h3.936a7.727 7.727 0 0 0-2.305-5.503A7.93 7.93 0 0 0 25 16.988v3.892c2.176.003 3.939 1.743 3.942 3.891z"/>
            <path d="M25 32.554v-3.891c-2.177-.004-3.942-1.744-3.945-3.892h-3.933a7.724 7.724 0 0 0 2.305 5.501A7.939 7.939 0 0 0 25 32.554z"/>
        </g>
    </g>
</svg>
