<svg xmlns="http://www.w3.org/2000/svg" width="82" height="83" viewBox="0 0 82 83">
    <g fill="none" fill-rule="nonzero">
        <path fill="#F15B47" d="M73.793 42a32.815 32.815 0 0 1-9.594 23.226A32.736 32.736 0 0 1 41 74.832V83a40.95 40.95 0 0 0 28.981-11.998A41.05 41.05 0 0 0 82 42h-8.207zM41 8.207V0A40.976 40.976 0 0 0 0 41h8.207A32.768 32.768 0 0 1 41 8.207z"/>
        <path fill="#F7941D" d="M16.247 42H8a32.975 32.975 0 0 0 33 33v-8.26A24.716 24.716 0 0 1 16.247 42zM41 8v8.26a24.715 24.715 0 0 1 17.515 7.229A24.733 24.733 0 0 1 65.768 41H74a32.97 32.97 0 0 0-9.655-23.35A32.945 32.945 0 0 0 41 8zM41 57.691V66a24.932 24.932 0 0 0 17.68-7.306A25.006 25.006 0 0 0 66 41h-8.346a16.692 16.692 0 0 1-4.873 11.802A16.642 16.642 0 0 1 41 57.692zM16 42h8.342a16.683 16.683 0 0 1 4.874-11.798A16.667 16.667 0 0 1 41 25.308V17a24.957 24.957 0 0 0-17.684 7.31A24.981 24.981 0 0 0 16 42z"/>
        <path fill="#F15B47" d="M49.506 41H58a16.981 16.981 0 0 0-4.975-12.02A17.006 17.006 0 0 0 41 24v8.5c4.695.007 8.5 3.808 8.506 8.5zM41 58v-8.5c-4.699-.007-8.506-3.808-8.513-8.5H24a16.975 16.975 0 0 0 4.974 12.016A17.026 17.026 0 0 0 41 58z"/>
    </g>
</svg>
