<?xml version="1.0" standalone="no"?>
<!DOCTYPE svg PUBLIC "-//W3C//DTD SVG 20010904//EN"
 "http://www.w3.org/TR/2001/REC-SVG-20010904/DTD/svg10.dtd">
<svg version="1.0" xmlns="http://www.w3.org/2000/svg"
 width="700.000000pt" height="700.000000pt" viewBox="0 0 700.000000 700.000000"
 preserveAspectRatio="xMidYMid meet">
<metadata>
Created by potrace 1.11, written by Peter Selinger 2001-2013
</metadata>
<g transform="translate(0.000000,700.000000) scale(0.100000,-0.100000)"
fill="#000000" stroke="none">
<path d="M3215 6968 c-163 -16 -215 -22 -300 -38 -27 -5 -63 -12 -80 -15 -50
-8 -276 -65 -340 -85 -462 -145 -878 -374 -1235 -679 -81 -69 -308 -296 -375
-375 -380 -447 -635 -971 -755 -1546 -12 -58 -24 -123 -26 -145 -3 -22 -7 -47
-9 -55 -2 -8 -7 -42 -10 -75 -3 -33 -8 -71 -10 -85 -3 -14 -7 -94 -11 -177 -5
-125 -4 -153 7 -154 52 -3 670 -2 673 2 2 2 6 66 10 141 4 76 8 143 11 150 2
7 6 36 9 63 3 28 8 61 10 75 3 14 10 52 15 85 17 94 18 99 46 202 147 541 468
1039 900 1398 33 28 66 56 74 63 8 7 82 58 164 113 298 197 682 355 997 409
36 6 76 13 90 16 28 5 74 11 135 19 22 2 99 8 170 11 l130 7 0 -329 c-1 -181
0 -334 2 -340 2 -6 35 -11 76 -12 70 -2 145 -8 197 -17 14 -2 45 -7 70 -10 25
-3 52 -8 60 -10 8 -2 30 -7 47 -10 63 -10 269 -77 363 -117 444 -188 817 -534
1037 -963 88 -171 171 -419 198 -595 4 -25 9 -52 10 -60 5 -29 17 -165 20
-223 2 -44 -1 -60 -12 -64 -8 -3 -154 -6 -324 -7 -302 -1 -310 -1 -314 19 -2
11 -6 56 -9 101 -14 217 -97 462 -221 656 -26 40 -50 75 -54 78 -3 3 -19 23
-35 44 -41 55 -129 144 -206 207 -227 189 -560 316 -842 321 l-63 1 0 294 c1
257 -1 293 -15 294 -73 4 -207 -7 -325 -27 -757 -128 -1372 -636 -1633 -1349
-39 -107 -85 -278 -97 -360 -3 -23 -7 -51 -10 -64 -6 -31 -16 -149 -19 -231
l-3 -65 -299 -2 c-164 -1 -316 -2 -337 -2 l-39 -1 6 -117 c15 -273 60 -515
142 -763 19 -58 41 -119 49 -137 8 -17 15 -35 15 -39 0 -14 153 -319 161 -322
5 -2 9 -8 9 -14 0 -17 161 -253 237 -348 95 -119 298 -321 423 -420 460 -366
1034 -582 1606 -605 55 -2 106 -4 114 -4 13 -1 15 -44 15 -337 l0 -336 150 6
c82 4 166 9 185 11 19 3 53 7 75 10 22 3 58 7 80 10 197 25 601 129 740 190
17 7 75 32 129 55 121 51 249 114 351 175 42 25 78 45 81 45 8 0 196 129 286
196 133 101 235 190 358 314 166 166 280 303 402 480 274 399 477 891 552
1340 9 52 18 105 20 117 3 12 8 53 11 90 4 37 9 77 11 88 2 10 7 87 10 170 l7
150 -342 -1 c-188 0 -343 -3 -345 -5 -2 -2 -7 -60 -11 -129 -15 -286 -58 -510
-143 -760 -104 -303 -306 -664 -487 -870 -300 -339 -548 -534 -907 -712 -152
-75 -382 -161 -514 -193 -94 -23 -258 -55 -308 -60 -33 -4 -70 -9 -80 -11 -11
-2 -65 -6 -120 -9 -56 -4 -120 -8 -143 -10 -24 -1 -43 0 -44 4 -1 3 -2 155 -4
336 -1 182 -3 333 -4 336 0 3 -27 6 -58 6 -275 2 -602 85 -874 221 -509 256
-887 707 -1058 1262 -51 168 -94 472 -82 585 1 9 638 12 646 3 2 -2 6 -28 10
-58 19 -164 53 -292 117 -436 171 -386 516 -681 933 -795 91 -25 92 -25 165
-34 30 -4 64 -8 75 -10 11 -2 45 -4 75 -4 l55 -1 0 -335 c0 -363 -4 -338 45
-337 108 1 255 18 380 43 458 92 903 360 1202 726 285 349 463 821 472 1250 0
40 6 74 11 75 6 1 150 2 320 4 171 1 318 3 327 3 16 1 17 12 13 124 -3 67 -7
133 -10 147 -2 14 -7 52 -11 85 -3 33 -15 107 -26 165 -82 436 -275 853 -558
1210 -98 124 -300 327 -420 423 -284 228 -628 406 -975 505 -142 41 -213 57
-345 78 -19 3 -46 7 -59 9 -51 9 -231 22 -321 24 l-45 1 0 336 0 335 -110 -3
c-60 -2 -141 -6 -180 -10z m290 -2419 l0 -299 30 0 c42 0 140 -18 193 -36 265
-88 462 -334 486 -607 3 -32 8 -61 10 -65 2 -4 156 -6 343 -6 l338 1 -2 -41
c-14 -285 -90 -520 -239 -741 -102 -151 -191 -240 -389 -391 -47 -36 -287
-146 -370 -169 -105 -30 -243 -54 -335 -57 l-65 -3 0 344 0 344 -45 3 c-63 4
-129 17 -185 36 -148 50 -302 175 -384 312 -46 76 -89 207 -97 292 l-7 71
-336 0 -336 0 -1 44 c-1 68 41 258 81 364 189 505 652 854 1195 904 129 11
115 45 115 -300z"/>
</g>
</svg>
