<?xml version="1.0" encoding="utf-8"?>
<!-- Generator: Adobe Illustrator 22.1.0, SVG Export Plug-In . SVG Version: 6.00 Build 0)  -->
<svg version="1.1" id="Слой_1" xmlns="http://www.w3.org/2000/svg" xmlns:xlink="http://www.w3.org/1999/xlink" x="0px" y="0px"
	 viewBox="0 0 14 13" style="enable-background:new 0 0 14 13;" xml:space="preserve">
<style type="text/css">
	.st0{fill:#F47832;}
</style>
<g>
	<path class="st0" d="M12,0.3c0.4-0.4,1-0.4,1.4,0c0.4,0.4,0.4,1,0,1.4L2.2,12.6c-0.4,0.4-1,0.4-1.4,0c-0.4-0.4-0.4-1,0-1.3
		c0,0,0,0,0,0L12,0.3z"/>
</g>
<path class="st0" d="M2.2,0.3c-0.4-0.4-1-0.4-1.4,0c-0.4,0.4-0.4,1,0,1.3c0,0,0,0,0,0L12,12.6c0.4,0.4,1,0.4,1.4,0
	c0.4-0.4,0.4-1,0-1.3c0,0,0,0,0,0L2.2,0.3z"/>
</svg>
