<?xml version="1.0" encoding="utf-8"?>
<!-- Generator: Adobe Illustrator 22.1.0, SVG Export Plug-In . SVG Version: 6.00 Build 0)  -->
<svg version="1.1" id="Слой_1" xmlns="http://www.w3.org/2000/svg" xmlns:xlink="http://www.w3.org/1999/xlink" x="0px" y="0px"
	 viewBox="0 0 12 15" style="enable-background:new 0 0 12 15;" xml:space="preserve">
<style type="text/css">
	.st0{fill:#F47832;}
</style>
<g>
	<path class="st0" d="M10.9,1.2c-0.1,0-2.6-1-4.5,0c-1.5,0.8-4.2,0.2-4.9,0V0.7c0-0.1-0.1-0.2-0.2-0.2c0,0,0,0,0,0
		C1.1,0.5,1,0.6,1,0.7c0,0,0,0,0,0v0.7l0,0l0,0v12.8c0,0.1,0.1,0.2,0.2,0.2c0,0,0,0,0,0c0.1,0,0.2-0.1,0.2-0.2c0,0,0,0,0,0V8.8
		C2,8.9,3.1,9.1,4.3,9.1c0.8,0,1.6-0.1,2.3-0.5c1.7-0.9,4.1,0,4.1,0c0.1,0,0.1,0,0.2,0C11,8.6,11,8.5,11,8.5v-7
		C11,1.4,10.9,1.3,10.9,1.2z M10.5,8.1C9.8,7.9,7.9,7.4,6.3,8.2c-1.5,0.8-4.2,0.2-4.9,0V1.8C2.3,2,4.9,2.5,6.6,1.7
		c1.5-0.8,3.4-0.2,4,0V8.1z"/>
	<path class="st0" d="M1.2,15c-0.4,0-0.7-0.3-0.7-0.7V0.7C0.5,0.3,0.8,0,1.2,0c0.2,0,0.4,0.1,0.5,0.2C1.9,0.4,2,0.5,2,0.7v0.1
		c1.4,0.3,3.2,0.5,4.2-0.1c2.1-1.2,4.8-0.1,4.9,0l0,0c0.3,0.1,0.5,0.4,0.4,0.7v7c0,0.2-0.1,0.5-0.3,0.6c-0.2,0.1-0.5,0.2-0.7,0.1
		c0,0-2.2-0.9-3.7,0C6.1,9.5,5.3,9.6,4.3,9.6C3.4,9.6,2.6,9.5,2,9.4v4.9C2,14.7,1.6,15,1.2,15z M1,14.3C1,14.3,1,14.3,1,14.3L1,14.3
		z M1.5,14.3L1.5,14.3C1.5,14.3,1.5,14.3,1.5,14.3z M2,7.9c1.4,0.3,3.2,0.5,4.2-0.1C7.5,7.1,9,7.2,10,7.5V2C9.4,1.8,7.9,1.5,6.8,2.1
		C5.3,2.9,3.2,2.6,2,2.4V7.9z M1,0.7C1,0.7,1,0.7,1,0.7L1,0.7z M1.5,0.7L1.5,0.7C1.5,0.7,1.5,0.7,1.5,0.7z"/>
</g>
</svg>
