<?xml version="1.0" encoding="utf-8"?>
<!-- Generator: Adobe Illustrator 22.1.0, SVG Export Plug-In . SVG Version: 6.00 Build 0)  -->
<svg version="1.1" id="Слой_1" xmlns="http://www.w3.org/2000/svg" xmlns:xlink="http://www.w3.org/1999/xlink" x="0px" y="0px"
	 viewBox="0 0 17 16" style="enable-background:new 0 0 17 16;" xml:space="preserve">
<style type="text/css">
	.st0{fill:#F47832;}
</style>
<g>
	<path class="st0" d="M16,1.9l-0.5-0.8C15.3,1,15.2,1,15.1,1c0,0,0,0,0,0l-0.4,0.3l-0.1-0.1c-0.1-0.1-0.2-0.1-0.3-0.1c0,0,0,0,0,0
		c-0.1,0.1-0.1,0.2-0.1,0.4l0.1,0.1L5.2,8.4L4.6,8.3c-0.1,0-0.3,0.1-0.3,0.2c0,0,0,0,0,0c0,0.1,0.1,0.3,0.2,0.3l0.6,0.1L5.2,9
		l-4.1,3C1,12.2,1,12.3,1,12.4l1.7,2.4C2.8,15,2.9,15,2.9,15c0.1,0,0.1,0,0.2-0.1l3-3.9c0.4,0.2,0.8,0.1,1.1-0.1
		c0.5-0.4,0.6-1.2,0.2-1.7c0,0,0,0,0,0l2-1.5c0.3-0.2,0.4-0.5,0.3-0.9l6.1-4.5C16,2.2,16,2,16,1.9z M2.9,14.3l-1.4-2l3.9-2.9
		l0.3,0.5l0,0.7C5.8,10.6,2.9,14.3,2.9,14.3z M7.1,9.5c0.2,0.3,0.1,0.7-0.2,0.9c-0.2,0.1-0.4,0.2-0.6,0.1l0-0.4l0.2,0.1
		c0,0,0,0,0.1,0c0.1,0,0.2-0.1,0.2-0.2c0-0.1,0-0.3-0.2-0.3l0,0L7.1,9.5C7.1,9.5,7.1,9.5,7.1,9.5z M9.2,7.2l-3,2.2L5.6,8.7l3.3-2.4
		l0.3,0.5C9.3,6.9,9.3,7.1,9.2,7.2L9.2,7.2z M9.5,6.3L9.3,6l5.9-4.3L15.4,2C15.4,2,9.5,6.3,9.5,6.3z"/>
	<path class="st0" d="M2.9,15.3c-0.2,0-0.4-0.1-0.5-0.3l-1.7-2.4c-0.2-0.3-0.1-0.6,0.1-0.8l3.6-2.7l0,0C4.2,9.1,3.9,8.8,4,8.4l0-0.1
		l0,0C4.1,8,4.4,7.9,4.7,7.9L5.1,8l8.7-6.4c-0.1-0.2,0-0.5,0.2-0.7c0.2-0.1,0.3-0.1,0.5-0.1c0.1,0,0.1,0,0.2,0.1l0.2-0.1
		c0.3-0.2,0.7-0.1,0.8,0.1l0.5,0.8c0.2,0.3,0.1,0.6-0.1,0.8l-6,4.4c0,0.4-0.2,0.8-0.5,1L7.9,9.2c0.1,0.3,0.2,0.6,0.2,0.9
		c-0.1,0.4-0.3,0.8-0.6,1c-0.3,0.3-0.8,0.3-1.2,0.3l-2.9,3.7C3.3,15.3,3.1,15.3,2.9,15.3z M2.1,12.4L3,13.7l2.5-3.2l0-0.4L5.4,10
		L2.1,12.4z M6.1,8.8L6.2,9l2.7-2L8.8,6.8L6.1,8.8z M14.3,1.4L14.3,1.4L14.3,1.4L14.3,1.4z"/>
</g>
</svg>
