<svg xmlns="http://www.w3.org/2000/svg" width="13" height="10" viewBox="0 0 13 10">
    <g fill="#1F2D54" fill-rule="evenodd">
        <path d="M1.247 3.095c.164.113.66.45 1.486 1.01s1.46.99 1.9 1.292l.307.216c.157.112.288.201.392.27.104.068.23.145.377.23.147.085.286.149.417.191.13.043.25.064.362.064h.015c.11 0 .232-.021.362-.064.13-.042.27-.106.417-.191.147-.085.273-.162.377-.23.104-.069.234-.158.391-.27l.308-.216 3.393-2.302c.353-.24.647-.531.884-.872.237-.34.356-.696.356-1.07 0-.31-.115-.578-.345-.8a1.134 1.134 0 0 0-.815-.333H1.16C.788.02.5.143.3.39c-.2.245-.3.552-.3.92 0 .298.133.62.399.968.265.347.548.62.848.818z"/>
        <path d="M12.265 3.853a150.798 150.798 0 0 0-3.61 2.444c-.275.198-.498.353-.67.464-.172.111-.4.225-.685.34-.285.116-.55.174-.797.174h-.015c-.246 0-.512-.058-.797-.174a4.177 4.177 0 0 1-.685-.34c-.172-.11-.395-.266-.67-.464C3.682 5.83 2.481 5.015.731 3.853A3.817 3.817 0 0 1 0 3.237v5.625c0 .311.114.578.34.8.228.222.5.333.82.333h10.67c.32 0 .593-.11.82-.333.227-.222.34-.488.34-.8V3.237c-.207.226-.449.432-.725.616z"/>
    </g>
</svg>
