<?xml version="1.0" encoding="utf-8"?>
<!-- Generator: Adobe Illustrator 22.1.0, SVG Export Plug-In . SVG Version: 6.00 Build 0)  -->
<svg version="1.1" id="Слой_1" xmlns="http://www.w3.org/2000/svg" xmlns:xlink="http://www.w3.org/1999/xlink" x="0px" y="0px"
	 viewBox="0 0 11 15" style="enable-background:new 0 0 11 15;" xml:space="preserve">
<style type="text/css">
	.st0{fill:#F47832;}
</style>
<g transform="translate(1 1)">
	<g>
		<circle class="st0" cx="4.7" cy="5.1" r="1.5"/>
	</g>
	<g>
		<path class="st0" d="M4.5,13.2l-0.6-0.7C0.7,9-0.8,6.4-0.8,4.5c0-2.9,2.4-5.3,5.3-5.3c2.9,0,5.3,2.4,5.3,5.3c0,1.9-1.5,4.5-4.7,8
			L4.5,13.2z M4.5,0.8c-2,0-3.7,1.7-3.7,3.7c0,0.9,0.7,2.8,3.7,6.3c3-3.5,3.7-5.4,3.7-6.3C8.2,2.5,6.5,0.8,4.5,0.8z"/>
	</g>
</g>
</svg>
