<?xml version="1.0" encoding="utf-8"?>
<!-- Generator: Adobe Illustrator 22.1.0, SVG Export Plug-In . SVG Version: 6.00 Build 0)  -->
<svg version="1.1" id="Слой_1" xmlns="http://www.w3.org/2000/svg" xmlns:xlink="http://www.w3.org/1999/xlink" x="0px" y="0px"
	 viewBox="0 0 16 14.8" style="enable-background:new 0 0 16 14.8;" xml:space="preserve">
<style type="text/css">
	.st0{fill:#F47832;}
</style>
<g>
	<g>
		<path class="st0" d="M8.2,11.7c-6.9,0-7.6-3.3-7.6-3.4c0-0.3-0.1-1.5,0-2l0,0c0.2-1,1.9-3.7,7.3-3.5c3.2,0.1,5.4,0.9,6.6,2.3
			c0.9,1.1,0.9,2.2,0.9,2.5c0,0.3,0.1,1.2-0.7,2.1c-1,1.2-2.9,1.9-5.6,2C8.8,11.7,8.5,11.7,8.2,11.7z M1.6,8.2c0,0,0.7,2.8,7.5,2.5
			c3-0.1,4.3-0.9,4.9-1.6c0.6-0.7,0.5-1.4,0.5-1.4l0-0.1l0-0.1c0,0,0.1-0.9-0.7-1.8c-1-1.2-3-1.8-5.9-1.9C2.5,3.6,1.6,6.5,1.6,6.5
			L1.1,6.4l0.5,0.1C1.5,6.8,1.6,7.6,1.6,8.2C1.6,8.2,1.6,8.2,1.6,8.2z"/>
	</g>
	<g>
		<path class="st0" d="M8.5,9.6C6.7,9.6,4.6,9.3,3,8.4C1.1,7.2,1.3,5.5,1.7,4.7l0.9,0.4L2.1,4.9l0.5,0.2C2.5,5.3,2,6.6,3.5,7.5
			c2.2,1.3,5.5,1.3,7,0.9c1.6-0.5,2.5-1,2.9-1.7c0.2-0.4,0.2-0.8-0.1-1.4l0.9-0.4c0.3,0.8,0.4,1.5,0.1,2.2c-0.4,0.9-1.6,1.6-3.5,2.2
			C10.2,9.5,9.4,9.6,8.5,9.6z"/>
	</g>
	<g>
		<path class="st0" d="M8.2,7.6C5.8,7.6,4,6.6,4,5.3c0-1.3,1.8-2.2,4.2-2.2c2.4,0,4.2,1,4.2,2.2C12.3,6.6,10.6,7.6,8.2,7.6z
			 M8.2,4.1C6.2,4.1,5,4.8,5,5.3c0,0.5,1.2,1.2,3.2,1.2c1.9,0,3.2-0.7,3.2-1.2C11.3,4.8,10.1,4.1,8.2,4.1z"/>
	</g>
</g>
</svg>
